<svg xmlns="http://www.w3.org/2000/svg" viewBox="0 0 64 64" role="img" aria-label="Mengxi Notes">
  <defs>
    <linearGradient id="bg" x1="12" x2="52" y1="8" y2="56" gradientUnits="userSpaceOnUse">
      <stop offset="0" stop-color="#2c6d60" />
      <stop offset="1" stop-color="#ab6246" />
    </linearGradient>
  </defs>
  <rect width="64" height="64" rx="18" fill="#fbf7f1" />
  <path fill="url(#bg)" d="M18 15h17c7.18 0 12 4.34 12 11.42V49H35c-11.05 0-17-6.14-17-15.73V15Z" />
  <path fill="#fffaf3" d="M24 23.5h10.7c4.2 0 6.8 2.28 6.8 6.12 0 4.02-2.9 6.38-7.68 6.38H30v7h-6V23.5Zm6 4.8v4.92h3.1c1.6 0 2.52-.9 2.52-2.48 0-1.58-.92-2.44-2.52-2.44H30Z" />
</svg>
